<svg xmlns="http://www.w3.org/2000/svg" xmlns:xlink="http://www.w3.org/1999/xlink" preserveAspectRatio="xMidYMid" width="99" height="99" viewBox="0 0 99 99">
  <defs>
    <style>
      .cls-1 {
        fill: #969493;
        opacity: 0.5;
        fill-rule: evenodd;
      }
    </style>
  </defs>
  <path d="M97.738,10.422 L89.844,10.422 C89.148,10.422 88.581,9.856 88.581,9.159 L88.581,1.262 C88.581,0.566 89.148,-0.000 89.844,-0.000 C90.540,-0.000 91.106,0.566 91.106,1.262 L91.106,7.897 L97.738,7.897 C98.433,7.897 99.000,8.463 99.000,9.159 C99.000,9.856 98.433,10.422 97.738,10.422 ZM95.053,13.108 C95.053,13.804 94.487,14.371 93.791,14.371 L85.896,14.371 C85.201,14.371 84.634,13.804 84.634,13.108 L84.634,5.211 C84.634,4.515 85.201,3.948 85.896,3.948 C86.592,3.948 87.159,4.515 87.159,5.211 L87.159,11.846 L93.791,11.846 C94.487,11.846 95.053,12.412 95.053,13.108 ZM91.106,17.055 C91.106,17.751 90.540,18.318 89.844,18.318 L82.471,18.318 L46.276,54.523 C46.038,54.762 45.721,54.893 45.383,54.893 C45.046,54.893 44.729,54.762 44.490,54.523 C44.252,54.285 44.121,53.968 44.121,53.630 C44.121,53.294 44.252,52.977 44.490,52.738 L80.686,16.533 L80.686,9.159 C80.686,8.463 81.253,7.897 81.949,7.897 C82.645,7.897 83.212,8.463 83.212,9.159 L83.212,15.792 L89.844,15.792 C90.540,15.792 91.106,16.359 91.106,17.055 ZM53.109,52.066 C53.326,51.807 53.631,51.649 53.968,51.621 L54.070,51.616 C54.731,51.616 55.274,52.112 55.333,52.768 C55.524,54.978 54.969,57.213 53.770,59.062 C53.211,59.924 52.512,60.702 51.694,61.375 C51.661,61.406 51.577,61.470 51.486,61.537 C49.779,62.876 47.611,63.617 45.390,63.617 C43.079,63.617 40.837,62.822 39.076,61.378 C36.738,59.461 35.397,56.637 35.397,53.630 C35.397,50.625 36.738,47.801 39.076,45.884 C40.552,44.671 42.347,43.919 44.268,43.712 C44.639,43.669 45.020,43.648 45.395,43.648 C45.907,43.648 46.421,43.688 46.922,43.766 C47.253,43.818 47.546,43.995 47.745,44.267 C47.945,44.540 48.027,44.874 47.975,45.209 C47.878,45.827 47.350,46.276 46.719,46.276 C46.660,46.276 46.600,46.272 46.541,46.263 C46.157,46.204 45.772,46.174 45.391,46.174 C45.109,46.174 44.827,46.190 44.546,46.222 C43.112,46.377 41.775,46.934 40.678,47.835 C38.926,49.273 37.921,51.385 37.921,53.630 C37.921,55.878 38.926,57.990 40.677,59.425 C41.989,60.501 43.661,61.093 45.384,61.093 C47.045,61.093 48.669,60.537 49.955,59.529 L50.103,59.414 C50.709,58.916 51.234,58.333 51.650,57.688 C52.546,56.308 52.961,54.638 52.818,52.987 C52.789,52.650 52.893,52.322 53.109,52.066 ZM66.392,39.079 C66.464,38.750 66.660,38.468 66.944,38.286 C67.149,38.156 67.384,38.088 67.625,38.088 C68.057,38.088 68.455,38.304 68.687,38.666 C74.560,47.800 74.539,59.582 68.636,68.683 C67.091,71.073 65.152,73.234 62.875,75.103 C62.746,75.216 62.590,75.334 62.425,75.459 C57.611,79.234 51.562,81.308 45.379,81.308 L45.370,81.308 C38.982,81.308 32.778,79.109 27.903,75.115 C21.418,69.796 17.697,61.965 17.696,53.632 C17.696,45.298 21.417,37.467 27.903,32.146 C31.986,28.789 36.958,26.710 42.281,26.134 C43.328,26.016 44.387,25.957 45.427,25.957 C48.107,25.957 50.760,26.348 53.310,27.120 C55.903,27.874 58.372,29.017 60.642,30.516 C61.222,30.900 61.384,31.684 61.000,32.264 C60.766,32.620 60.371,32.832 59.945,32.832 C59.696,32.832 59.455,32.759 59.249,32.621 C57.192,31.263 54.952,30.225 52.592,29.540 C50.269,28.836 47.861,28.481 45.432,28.481 C44.482,28.481 43.515,28.535 42.557,28.643 C37.721,29.166 33.208,31.052 29.505,34.097 C23.605,38.937 20.221,46.057 20.221,53.632 C20.222,61.206 23.605,68.324 29.503,73.162 C33.935,76.792 39.576,78.792 45.388,78.792 C45.388,78.792 45.389,78.792 45.390,78.792 C50.996,78.792 56.473,76.916 60.813,73.511 C61.030,73.348 61.138,73.269 61.245,73.175 C63.341,71.454 65.111,69.484 66.517,67.310 C71.882,59.040 71.900,48.332 66.563,40.032 C66.380,39.748 66.320,39.409 66.392,39.079 ZM72.762,20.278 C72.479,20.278 72.201,20.181 71.978,20.005 C67.700,16.608 62.881,14.115 57.655,12.596 C53.701,11.397 49.600,10.790 45.463,10.790 C43.847,10.790 42.201,10.883 40.571,11.068 C32.329,11.962 24.641,15.177 18.336,20.365 C8.288,28.605 2.525,40.730 2.525,53.630 C2.524,66.531 8.286,78.655 18.333,86.896 C25.883,93.079 35.494,96.485 45.394,96.485 C54.943,96.485 64.273,93.290 71.668,87.488 C71.998,87.243 72.211,87.084 72.424,86.900 C75.978,83.981 78.988,80.629 81.379,76.931 C91.272,61.679 90.433,41.775 79.291,27.402 C78.866,26.852 78.966,26.058 79.515,25.630 C79.738,25.457 80.005,25.365 80.287,25.365 C80.681,25.365 81.044,25.543 81.286,25.854 C93.085,41.076 93.974,62.154 83.499,78.304 C80.966,82.220 77.787,85.762 74.050,88.831 C73.817,89.033 73.557,89.228 73.285,89.432 C65.423,95.599 55.508,99.000 45.375,99.000 C34.898,99.000 24.726,95.395 16.733,88.849 C6.098,80.127 0.000,67.291 0.000,53.630 C0.000,39.970 6.099,27.134 16.733,18.415 C23.420,12.912 31.568,9.503 40.294,8.558 C42.015,8.364 43.756,8.265 45.466,8.265 C49.850,8.265 54.193,8.908 58.374,10.175 C63.906,11.784 69.013,14.426 73.548,18.027 C74.093,18.461 74.184,19.256 73.751,19.800 C73.511,20.104 73.151,20.278 72.762,20.278 Z" class="cls-1"/>
</svg>
