<svg xmlns="http://www.w3.org/2000/svg" xmlns:xlink="http://www.w3.org/1999/xlink" preserveAspectRatio="xMidYMid" width="79" height="97" viewBox="0 0 79 97">
  <defs>
    <style>
      .cls-1 {
        fill: green;
        fill-rule: evenodd;
      }
    </style>
  </defs>
  <path d="M68.471,66.328 L78.579,83.810 C79.007,84.584 79.178,85.529 78.749,86.347 C78.322,87.162 77.381,87.550 76.480,87.550 L67.187,87.636 L62.562,95.583 C62.091,96.357 61.277,97.000 60.376,97.000 C59.433,97.000 58.664,96.398 58.192,95.583 L48.127,78.142 C45.343,78.742 42.431,79.086 39.476,79.086 C36.478,79.086 33.609,78.743 30.825,78.142 L20.803,95.583 C20.374,96.399 19.603,97.000 18.662,97.000 C17.718,97.000 16.905,96.357 16.477,95.583 L11.766,87.636 L2.514,87.550 C1.657,87.550 0.716,87.162 0.244,86.347 C-0.185,85.529 -0.013,84.584 0.415,83.810 L10.480,66.328 C4.013,59.283 0.030,49.875 0.030,39.565 C0.030,17.741 17.676,0.000 39.476,0.000 C61.233,0.000 78.921,17.743 78.921,39.565 C78.921,49.875 74.938,59.283 68.471,66.328 ZM60.334,94.378 C60.334,94.421 60.334,94.421 60.376,94.465 C60.376,94.419 60.419,94.419 60.419,94.378 L60.462,94.334 L65.473,85.831 C65.644,85.444 66.071,85.230 66.457,85.230 L76.436,85.144 C76.480,85.144 76.480,85.144 76.523,85.144 C76.523,85.100 76.523,85.100 76.480,85.013 L66.758,68.132 C62.261,72.427 56.693,75.694 50.570,77.496 L60.334,94.378 ZM2.469,85.015 C2.469,85.060 2.469,85.060 2.469,85.101 C2.469,85.101 2.469,85.145 2.556,85.145 L12.493,85.232 C12.922,85.232 13.306,85.444 13.521,85.832 L18.575,94.336 C18.619,94.423 18.619,94.423 18.662,94.466 C18.662,94.421 18.662,94.421 18.704,94.380 L28.383,77.498 C22.259,75.692 16.735,72.427 12.237,68.132 L2.469,85.015 ZM39.476,2.450 C19.004,2.450 2.471,19.031 2.469,39.568 C2.469,49.491 6.325,58.470 12.663,65.128 C12.707,65.213 12.792,65.213 12.835,65.300 C14.033,66.547 15.319,67.663 16.646,68.738 C17.804,69.639 19.002,70.498 20.287,71.271 C20.374,71.314 20.415,71.400 20.502,71.443 C20.759,71.614 21.059,71.743 21.358,71.872 C21.743,72.130 22.172,72.344 22.599,72.559 C22.771,72.644 22.942,72.773 23.156,72.860 C23.755,73.160 24.399,73.460 25.040,73.718 C26.154,74.192 27.267,74.621 28.425,75.008 C31.936,76.082 35.620,76.640 39.474,76.640 C44.571,76.640 49.453,75.609 53.908,73.718 C54.935,73.289 56.007,72.816 56.991,72.257 C57.120,72.171 57.290,72.129 57.420,72.042 C57.762,71.828 58.104,71.656 58.448,71.441 C58.533,71.399 58.618,71.312 58.705,71.270 C59.946,70.496 61.102,69.680 62.260,68.778 C62.302,68.735 62.346,68.735 62.387,68.692 C63.717,67.662 64.959,66.501 66.158,65.298 L66.158,65.256 C66.202,65.212 66.245,65.212 66.245,65.169 C72.625,58.511 76.523,49.533 76.523,39.567 C76.523,19.032 59.948,2.450 39.476,2.450 ZM34.764,55.044 C34.438,55.368 34.006,55.547 33.548,55.547 C33.548,55.547 33.547,55.546 33.546,55.546 C33.545,55.546 33.545,55.547 33.544,55.547 C33.085,55.547 32.653,55.368 32.328,55.044 L20.425,43.175 C19.755,42.506 19.755,41.417 20.425,40.749 C20.750,40.425 21.182,40.246 21.641,40.246 C22.101,40.246 22.533,40.425 22.859,40.749 L33.545,51.407 L56.134,28.873 C56.459,28.549 56.891,28.370 57.351,28.370 C57.810,28.370 58.242,28.548 58.567,28.873 C58.892,29.197 59.071,29.628 59.071,30.086 C59.071,30.544 58.892,30.975 58.567,31.299 L34.764,55.044 Z" class="cls-1"/>
<style xmlns="http://www.w3.org/1999/xhtml" charset="utf-8" type="text/css" class="firebugResetStyles">/* See license.txt for terms of usage */
/** reset styling **/
.firebugResetStyles {
    z-index: 2147483646 !important;
    top: 0 !important;
    left: 0 !important;
    display: block !important;
    border: 0 none !important;
    margin: 0 !important;
    padding: 0 !important;
    outline: 0 !important;
    min-width: 0 !important;
    max-width: none !important;
    min-height: 0 !important;
    max-height: none !important;
    position: fixed !important;
    transform: rotate(0deg) !important;
    transform-origin: 50% 50% !important;
    border-radius: 0 !important;
    box-shadow: none !important;
    background: transparent none !important;
    pointer-events: none !important;
    white-space: normal !important;
}
style.firebugResetStyles {
    display: none !important;
}

.firebugBlockBackgroundColor {
    background-color: transparent !important;
}

.firebugResetStyles:before, .firebugResetStyles:after {
    content: "" !important;
}
/**actual styling to be modified by firebug theme**/
.firebugCanvas {
    display: none !important;
}

/* * * * * * * * * * * * * * * * * * * * * * * * * * * * * * * * * * * * * * * * * * * * * * * * */
.firebugLayoutBox {
    width: auto !important;
    position: static !important;
}

.firebugLayoutBoxOffset {
    opacity: 0.8 !important;
    position: fixed !important;
}

.firebugLayoutLine {
    opacity: 0.4 !important;
    background-color: #000000 !important;
}

.firebugLayoutLineLeft, .firebugLayoutLineRight {
    width: 1px !important;
    height: 100% !important;
}

.firebugLayoutLineTop, .firebugLayoutLineBottom {
    width: 100% !important;
    height: 1px !important;
}

.firebugLayoutLineTop {
    margin-top: -1px !important;
    border-top: 1px solid #999999 !important;
}

.firebugLayoutLineRight {
    border-right: 1px solid #999999 !important;
}

.firebugLayoutLineBottom {
    border-bottom: 1px solid #999999 !important;
}

.firebugLayoutLineLeft {
    margin-left: -1px !important;
    border-left: 1px solid #999999 !important;
}

/* * * * * * * * * * * * * * * * * * * * * * * * * * * * * * * * * * * * * * * * * * * * * * * * */
.firebugLayoutBoxParent {
    border-top: 0 none !important;
    border-right: 1px dashed #E00 !important;
    border-bottom: 1px dashed #E00 !important;
    border-left: 0 none !important;
    position: fixed !important;
    width: auto !important;
}

.firebugRuler{
    position: absolute !important;
}

.firebugRulerH {
    top: -15px !important;
    left: 0 !important;
    width: 100% !important;
    height: 14px !important;
    background: url("data:image/png,%89PNG%0D%0A%1A%0A%00%00%00%0DIHDR%00%00%13%88%00%00%00%0E%08%02%00%00%00L%25a%0A%00%00%00%04gAMA%00%00%D6%D8%D4OX2%00%00%00%19tEXtSoftware%00Adobe%20ImageReadyq%C9e%3C%00%00%04%F8IDATx%DA%EC%DD%D1n%E2%3A%00E%D1%80%F8%FF%EF%E2%AF2%95%D0D4%0E%C1%14%B0%8Fa-%E9%3E%CC%9C%87n%B9%81%A6W0%1C%A6i%9A%E7y%0As8%1CT%A9R%A5J%95*U%AAT%A9R%A5J%95*U%AAT%A9R%A5J%95*U%AAT%A9R%A5J%95*U%AAT%A9R%A5J%95*U%AAT%A9R%A5J%95*U%AAT%A9R%A5J%95*U%AATE9%FE%FCw%3E%9F%AF%2B%2F%BA%97%FDT%1D~K(%5C%9D%D5%EA%1B%5C%86%B5%A9%BDU%B5y%80%ED%AB*%03%FAV9%AB%E1%CEj%E7%82%EF%FB%18%BC%AEJ8%AB%FA'%D2%BEU9%D7U%ECc0%E1%A2r%5DynwVi%CFW%7F%BB%17%7Dy%EACU%CD%0E%F0%FA%3BX%FEbV%FEM%9B%2B%AD%BE%AA%E5%95v%AB%AA%E3E5%DCu%15rV9%07%B5%7F%B5w%FCm%BA%BE%AA%FBY%3D%14%F0%EE%C7%60%0EU%AAT%A9R%A5J%95*U%AAT%A9R%A5J%95*U%AAT%A9R%A5J%95*U%AAT%A9R%A5J%95*U%AAT%A9R%A5JU%88%D3%F5%1F%AE%DF%3B%1B%F2%3E%DAUCNa%F92%D02%AC%7Dm%F9%3A%D4%F2%8B6%AE*%BF%5C%C2Ym~9g5%D0Y%95%17%7C%C8c%B0%7C%18%26%9CU%CD%13i%F7%AA%90%B3Z%7D%95%B4%C7%60%E6E%B5%BC%05%B4%FBY%95U%9E%DB%FD%1C%FC%E0%9F%83%7F%BE%17%7DkjMU%E3%03%AC%7CWj%DF%83%9An%BCG%AE%F1%95%96yQ%0Dq%5Dy%00%3Et%B5'%FC6%5DS%95pV%95%01%81%FF'%07%00%00%00%00%00%00%00%00%00%F8x%C7%F0%BE%9COp%5D%C9%7C%AD%E7%E6%EBV%FB%1E%E0(%07%E5%AC%C6%3A%ABi%9C%8F%C6%0E9%AB%C0'%D2%8E%9F%F99%D0E%B5%99%14%F5%0D%CD%7F%24%C6%DEH%B8%E9rV%DFs%DB%D0%F7%00k%FE%1D%84%84%83J%B8%E3%BA%FB%EF%20%84%1C%D7%AD%B0%8E%D7U%C8Y%05%1E%D4t%EF%AD%95Q%BF8w%BF%E9%0A%BF%EB%03%00%00%00%00%00%00%00%00%00%B8vJ%8E%BB%F5%B1u%8Cx%80%E1o%5E%CA9%AB%CB%CB%8E%03%DF%1D%B7T%25%9C%D5(%EFJM8%AB%CC'%D2%B2*%A4s%E7c6%FB%3E%FA%A2%1E%80~%0E%3E%DA%10x%5D%95Uig%15u%15%ED%7C%14%B6%87%A1%3B%FCo8%A8%D8o%D3%ADO%01%EDx%83%1A~%1B%9FpP%A3%DC%C6'%9C%95gK%00%00%00%00%00%00%00%00%00%20%D9%C9%11%D0%C0%40%AF%3F%EE%EE%92%94%D6%16X%B5%BCMH%15%2F%BF%D4%A7%C87%F1%8E%F2%81%AE%AAvzr%DA2%ABV%17%7C%E63%83%E7I%DC%C6%0Bs%1B%EF6%1E%00%00%00%00%00%00%00%00%00%80cr%9CW%FF%7F%C6%01%0E%F1%CE%A5%84%B3%CA%BC%E0%CB%AA%84%CE%F9%BF)%EC%13%08WU%AE%AB%B1%AE%2BO%EC%8E%CBYe%FE%8CN%ABr%5Dy%60~%CFA%0D%F4%AE%D4%BE%C75%CA%EDVB%EA(%B7%F1%09g%E5%D9%12%00%00%00%00%00%00%00%00%00H%F6%EB%13S%E7y%5E%5E%FB%98%F0%22%D1%B2'%A7%F0%92%B1%BC%24z3%AC%7Dm%60%D5%92%B4%7CEUO%5E%F0%AA*%3BU%B9%AE%3E%A0j%94%07%A0%C7%A0%AB%FD%B5%3F%A0%F7%03T%3Dy%D7%F7%D6%D4%C0%AAU%D2%E6%DFt%3F%A8%CC%AA%F2%86%B9%D7%F5%1F%18%E6%01%F8%CC%D5%9E%F0%F3z%88%AA%90%EF%20%00%00%00%00%00%00%00%00%00%C0%A6%D3%EA%CFi%AFb%2C%7BB%0A%2B%C3%1A%D7%06V%D5%07%A8r%5D%3D%D9%A6%CAu%F5%25%CF%A2%99%97zNX%60%95%AB%5DUZ%D5%FBR%03%AB%1C%D4k%9F%3F%BB%5C%FF%81a%AE%AB'%7F%F3%EA%FE%F3z%94%AA%D8%DF%5B%01%00%00%00%00%00%00%00%00%00%8E%FB%F3%F2%B1%1B%8DWU%AAT%A9R%A5J%95*U%AAT%A9R%A5J%95*U%AAT%A9R%A5J%95*U%AAT%A9R%A5J%95*U%AAT%A9R%A5J%95*U%AAT%A9R%A5J%95*U%AAT%A9R%A5J%95*UiU%C7%BBe%E7%F3%B9%CB%AAJ%95*U%AAT%A9R%A5J%95*U%AAT%A9R%A5J%95*U%AAT%A9R%A5J%95*U%AAT%A9R%A5J%95*U%AAT%A9R%A5J%95*U%AAT%A9R%A5J%95*U%AAT%A9R%A5*%AAj%FD%C6%D4%5Eo%90%B5Z%ADV%AB%D5j%B5Z%ADV%AB%D5j%B5Z%ADV%AB%D5j%B5Z%ADV%AB%D5j%B5Z%ADV%AB%D5j%B5Z%ADV%AB%D5j%B5Z%ADV%AB%D5j%B5%86%AF%1B%9F%98%DA%EBm%BBV%AB%D5j%B5Z%ADV%AB%D5j%B5Z%ADV%AB%D5j%B5Z%ADV%AB%D5j%B5Z%ADV%AB%D5j%B5Z%ADV%AB%D5j%B5Z%ADV%AB%D5j%B5Z%AD%D6%E4%F58%01%00%00%00%00%00%00%00%00%00%00%00%00%00%40%85%7F%02%0C%008%C2%D0H%16j%8FX%00%00%00%00IEND%AEB%60%82") repeat-x !important;
    border-top: 1px solid #BBBBBB !important;
    border-right: 1px dashed #BBBBBB !important;
    border-bottom: 1px solid #000000 !important;
}

.firebugRulerV {
    top: 0 !important;
    left: -15px !important;
    width: 14px !important;
    height: 100% !important;
    background: url("data:image/png,%89PNG%0D%0A%1A%0A%00%00%00%0DIHDR%00%00%00%0E%00%00%13%88%08%02%00%00%00%0E%F5%CB%10%00%00%00%04gAMA%00%00%D6%D8%D4OX2%00%00%00%19tEXtSoftware%00Adobe%20ImageReadyq%C9e%3C%00%00%06~IDATx%DA%EC%DD%D1v%A20%14%40Qt%F1%FF%FF%E4%97%D9%07%3BT%19%92%DC%40(%90%EEy%9A5%CB%B6%E8%F6%9Ac%A4%CC0%84%FF%DC%9E%CF%E7%E3%F1%88%DE4%F8%5D%C7%9F%2F%BA%DD%5E%7FI%7D%F18%DDn%BA%C5%FB%DF%97%BFk%F2%10%FF%FD%B4%F2M%A7%FB%FD%FD%B3%22%07p%8F%3F%AE%E3%F4S%8A%8F%40%EEq%9D%BE8D%F0%0EY%A1Uq%B7%EA%1F%81%88V%E8X%3F%B4%CEy%B7h%D1%A2E%EBohU%FC%D9%AF2fO%8BBeD%BE%F7X%0C%97%A4%D6b7%2Ck%A5%12%E3%9B%60v%B7r%C7%1AI%8C%BD%2B%23r%00c0%B2v%9B%AD%CA%26%0C%1Ek%05A%FD%93%D0%2B%A1u%8B%16-%95q%5Ce%DCSO%8E%E4M%23%8B%F7%C2%FE%40%BB%BD%8C%FC%8A%B5V%EBu%40%F9%3B%A72%FA%AE%8C%D4%01%CC%B5%DA%13%9CB%AB%E2I%18%24%B0n%A9%0CZ*Ce%9C%A22%8E%D8NJ%1E%EB%FF%8F%AE%CAP%19*%C3%BAEKe%AC%D1%AAX%8C*%DEH%8F%C5W%A1e%AD%D4%B7%5C%5B%19%C5%DB%0D%EF%9F%19%1D%7B%5E%86%BD%0C%95%A12%AC%5B*%83%96%CAP%19%F62T%86%CAP%19*%83%96%CA%B8Xe%BC%FE)T%19%A1%17xg%7F%DA%CBP%19*%C3%BA%A52T%86%CAP%19%F62T%86%CA%B0n%A9%0CZ%1DV%C6%3D%F3%FCH%DE%B4%B8~%7F%5CZc%F1%D6%1F%AF%84%F9%0F6%E6%EBVt9%0E~%BEr%AF%23%B0%97%A12T%86%CAP%19%B4T%86%CA%B8Re%D8%CBP%19*%C3%BA%A52huX%19%AE%CA%E5%BC%0C%7B%19*CeX%B7h%A9%0C%95%E1%BC%0C%7B%19*CeX%B7T%06%AD%CB%5E%95%2B%BF.%8F%C5%97%D5%E4%7B%EE%82%D6%FB%CF-%9C%FD%B9%CF%3By%7B%19%F62T%86%CA%B0n%D1R%19*%A3%D3%CA%B0%97%A12T%86uKe%D0%EA%B02*%3F1%99%5DB%2B%A4%B5%F8%3A%7C%BA%2B%8Co%7D%5C%EDe%A8%0C%95a%DDR%19%B4T%C66%82fA%B2%ED%DA%9FC%FC%17GZ%06%C9%E1%B3%E5%2C%1A%9FoiB%EB%96%CA%A0%D5qe4%7B%7D%FD%85%F7%5B%ED_%E0s%07%F0k%951%ECr%0D%B5C%D7-g%D1%A8%0C%EB%96%CA%A0%A52T%C6)*%C3%5E%86%CAP%19%D6-%95A%EB*%95q%F8%BB%E3%F9%AB%F6%E21%ACZ%B7%22%B7%9B%3F%02%85%CB%A2%5B%B7%BA%5E%B7%9C%97%E1%BC%0C%EB%16-%95%A12z%AC%0C%BFc%A22T%86uKe%D0%EA%B02V%DD%AD%8A%2B%8CWhe%5E%AF%CF%F5%3B%26%CE%CBh%5C%19%CE%CB%B0%F3%A4%095%A1%CAP%19*Ce%A8%0C%3BO*Ce%A8%0C%95%A12%3A%AD%8C%0A%82%7B%F0v%1F%2FD%A9%5B%9F%EE%EA%26%AF%03%CA%DF9%7B%19*Ce%A8%0C%95%A12T%86%CA%B8Ze%D8%CBP%19*Ce%A8%0C%95%D1ae%EC%F7%89I%E1%B4%D7M%D7P%8BjU%5C%BB%3E%F2%20%D8%CBP%19*Ce%A8%0C%95%A12T%C6%D5*%C3%5E%86%CAP%19*Ce%B4O%07%7B%F0W%7Bw%1C%7C%1A%8C%B3%3B%D1%EE%AA%5C%D6-%EBV%83%80%5E%D0%CA%10%5CU%2BD%E07YU%86%CAP%19*%E3%9A%95%91%D9%A0%C8%AD%5B%EDv%9E%82%FFKOee%E4%8FUe%A8%0C%95%A12T%C6%1F%A9%8C%C8%3D%5B%A5%15%FD%14%22r%E7B%9F%17l%F8%BF%ED%EAf%2B%7F%CF%ECe%D8%CBP%19*Ce%A8%0C%95%E1%93~%7B%19%F62T%86%CAP%19*Ce%A8%0C%E7%13%DA%CBP%19*Ce%A8%0CZf%8B%16-Z%B4h%D1R%19f%8B%16-Z%B4h%D1R%19%B4%CC%16-Z%B4h%D1R%19%B4%CC%16-Z%B4h%D1%A2%A52%CC%16-Z%B4h%D1%A2%A52h%99-Z%B4h%D1%A2%A52h%99-Z%B4h%D1%A2EKe%98-Z%B4h%D1%A2EKe%D02%5B%B4h%D1%A2EKe%D02%5B%B4h%D1%A2E%8B%96%CA0%5B%B4h%D1%A2E%8B%96%CA%A0e%B6h%D1%A2E%8B%96%CA%A0e%B6h%D1%A2E%8B%16-%95a%B6h%D1%A2E%8B%16-%95A%CBl%D1%A2E%8B%16-%95A%CBl%D1%A2E%8B%16-Z*%C3l%D1%A2E%8B%16-Z*%83%96%D9%A2E%8B%16-Z*%83%96%D9%A2E%8B%16-Z%B4T%86%D9%A2E%8B%16-Z%B4T%06-%B3E%8B%16-Z%B4T%06-%B3E%8B%16-Z%B4h%A9%0C%B3E%8B%16-Z%B4h%A9%0CZf%8B%16-Z%B4h%A9%0CZf%8B%16-Z%B4h%D1R%19f%8B%16-Z%B4h%D1R%19%B4%CC%16-Z%B4h%D1R%19%B4%CC%16-Z%B4h%D1%A2%A52%CC%16-Z%B4h%D1%A2%A52h%99-Z%B4h%D1%A2%A52h%99-Z%B4h%D1%A2EKe%98-Z%B4h%D1%A2EKe%D02%5B%B4h%D1%A2EKe%D02%5B%B4h%D1%A2E%8B%96%CA0%5B%B4h%D1%A2E%8B%96%CA%A0e%B6h%D1%A2E%8B%96%CA%A0e%B6h%D1%A2E%8B%16-%95a%B6h%D1%A2E%8B%16-%95A%CBl%D1%A2E%8B%16-%95A%CBl%D1%A2E%8B%16-Z*%C3l%D1%A2E%8B%16-Z*%83%96%D9%A2E%8B%16-Z*%83%96%D9%A2E%8B%16-Z%B4T%86%D9%A2E%8B%16-Z%B4T%06-%B3E%8B%16-Z%B4T%06-%B3E%8B%16-Z%B4h%A9%0C%B3E%8B%16-Z%B4h%A9%0CZf%8B%16-Z%B4h%A9%0CZf%8B%16-Z%B4h%D1R%19f%8B%16-Z%B4h%D1R%19%B4%CC%16-Z%B4h%D1R%19%B4%CC%16-Z%B4h%D1%A2%A52%CC%16-Z%B4h%D1%A2%A52h%99-Z%B4h%D1%A2%A52h%99-Z%B4h%D1%A2EKe%98-Z%B4h%D1%A2EKe%D02%5B%B4h%D1%A2EKe%D02%5B%B4h%D1%A2E%8B%96%CA0%5B%B4h%D1%A2E%8B%96%CA%A0e%B6h%D1%A2E%8B%96%CA%A0e%B6h%D1%A2E%8B%16-%95a%B6h%D1%A2E%8B%16-%95A%CBl%D1%A2E%8B%16-%95A%CBl%D1%A2E%8B%16-Z*%C3l%D1%A2E%8B%16-Z*%83%96%D9%A2E%8B%16-Z*%83%96%D9%A2E%8B%16-Z%B4T%86%D9%A2E%8B%16-Z%B4T%06-%B3E%8B%16-Z%B4%AE%A4%F5%25%C0%00%DE%BF%5C'%0F%DA%B8q%00%00%00%00IEND%AEB%60%82") repeat-y !important;
    border-left: 1px solid #BBBBBB !important;
    border-right: 1px solid #000000 !important;
    border-bottom: 1px dashed #BBBBBB !important;
}

.overflowRulerX &gt; .firebugRulerV {
    left: 0 !important;
}

.overflowRulerY &gt; .firebugRulerH {
    top: 0 !important;
}

/* * * * * * * * * * * * * * * * * * * * * * * * * * * * * * * * * * * * * * * * * * * * * * * * */
.fbProxyElement {
    position: fixed !important;
    pointer-events: auto !important;
}
</style></svg>