<svg xmlns="http://www.w3.org/2000/svg" xmlns:xlink="http://www.w3.org/1999/xlink" preserveAspectRatio="xMidYMid" width="74" height="81" viewBox="0 0 74 81">
  <defs>
    <style>
      .cls-1 {
        fill: #8a837d;
        fill-rule: evenodd;
      }
    </style>
  </defs>
  <path d="M73.099,81.000 L52.278,81.000 C51.737,81.000 51.376,80.639 51.376,80.098 L51.376,50.121 C51.376,49.580 51.737,49.220 52.278,49.220 L73.099,49.220 C73.639,49.220 74.000,49.580 74.000,50.121 L74.000,80.098 C74.000,80.639 73.549,81.000 73.099,81.000 ZM72.197,51.022 L53.179,51.022 L53.179,79.197 L72.197,79.197 L72.197,51.022 ZM49.303,11.268 L43.625,15.595 L45.698,22.446 C45.968,23.167 45.698,23.979 45.067,24.429 C44.706,24.700 44.346,24.790 43.986,24.790 C43.625,24.790 43.264,24.610 42.994,24.429 L37.135,20.373 L31.277,24.429 C31.006,24.700 30.646,24.790 30.285,24.790 C29.924,24.790 29.564,24.700 29.204,24.429 C28.663,23.979 28.392,23.167 28.573,22.446 L30.646,15.595 L24.967,11.268 C24.336,10.817 24.066,10.006 24.336,9.285 C24.607,8.564 25.328,8.023 26.049,8.023 L33.169,7.842 L35.513,1.172 C35.783,0.451 36.504,-0.000 37.225,-0.000 C38.037,-0.000 38.668,0.451 38.938,1.082 L41.281,7.842 L48.222,8.023 C49.033,8.023 49.664,8.564 49.934,9.285 C50.205,10.006 49.934,10.817 49.303,11.268 ZM40.020,9.736 L37.225,1.803 L34.612,9.736 L26.229,9.916 L32.899,14.964 L30.465,22.987 L37.316,18.209 L44.166,22.987 L41.732,14.964 L48.402,9.916 L40.020,9.736 ZM21.722,81.000 L0.902,81.000 C0.361,81.000 0.000,80.639 0.000,80.098 L0.000,40.385 C0.000,39.845 0.361,39.484 0.902,39.484 L21.722,39.484 C22.263,39.484 22.624,39.845 22.624,40.385 L22.624,80.098 C22.624,80.639 22.173,81.000 21.722,81.000 ZM20.821,41.287 L1.803,41.287 L1.803,79.197 L20.821,79.197 L20.821,41.287 ZM26.860,29.838 L47.681,29.838 C48.222,29.838 48.582,30.199 48.582,30.740 L48.582,80.188 C48.582,80.639 48.132,81.000 47.681,81.000 L26.860,81.000 C26.319,81.000 25.959,80.639 25.959,80.098 L25.959,30.740 C25.959,30.199 26.319,29.838 26.860,29.838 ZM27.761,79.197 L46.779,79.197 L46.779,31.641 L27.761,31.641 L27.761,79.197 Z" class="cls-1"/>
</svg>
